<mxfile host="app.diagrams.net" modified="2024-01-11T01:31:20.874Z" agent="Mozilla/5.0 (Windows NT 10.0; Win64; x64) AppleWebKit/537.36 (KHTML, like Gecko) Chrome/120.0.0.0 Safari/537.36" etag="PHu-svJ40E3xBLc6X1Go" version="22.1.18" type="device">
  <diagram id="FiXUJnzLlhFP-MB1lQGa" name="Page-1">
    <mxGraphModel dx="882" dy="578" grid="1" gridSize="10" guides="1" tooltips="1" connect="1" arrows="1" fold="1" page="1" pageScale="1" pageWidth="850" pageHeight="1100" math="0" shadow="0">
      <root>
        <mxCell id="0" />
        <mxCell id="1" parent="0" />
        <mxCell id="vgRy7pZKUeW7eWB3Pxzg-1" value="Nudity probability" style="rounded=1;whiteSpace=wrap;html=1;" parent="1" vertex="1">
          <mxGeometry x="240" y="520" width="120" height="60" as="geometry" />
        </mxCell>
        <mxCell id="vgRy7pZKUeW7eWB3Pxzg-2" style="edgeStyle=orthogonalEdgeStyle;rounded=0;orthogonalLoop=1;jettySize=auto;html=1;exitX=0.5;exitY=1;exitDx=0;exitDy=0;entryX=0.5;entryY=0;entryDx=0;entryDy=0;" parent="1" source="vgRy7pZKUeW7eWB3Pxzg-3" target="vgRy7pZKUeW7eWB3Pxzg-12" edge="1">
          <mxGeometry relative="1" as="geometry" />
        </mxCell>
        <mxCell id="vgRy7pZKUeW7eWB3Pxzg-3" value="Violence classification head" style="rounded=1;whiteSpace=wrap;html=1;" parent="1" vertex="1">
          <mxGeometry x="80" y="360" width="120" height="60" as="geometry" />
        </mxCell>
        <mxCell id="vgRy7pZKUeW7eWB3Pxzg-20" style="edgeStyle=orthogonalEdgeStyle;rounded=0;orthogonalLoop=1;jettySize=auto;html=1;exitX=0.5;exitY=1;exitDx=0;exitDy=0;entryX=0.5;entryY=0;entryDx=0;entryDy=0;" parent="1" source="vgRy7pZKUeW7eWB3Pxzg-7" target="vgRy7pZKUeW7eWB3Pxzg-14" edge="1">
          <mxGeometry relative="1" as="geometry" />
        </mxCell>
        <mxCell id="vgRy7pZKUeW7eWB3Pxzg-7" value="Fused features" style="rounded=1;whiteSpace=wrap;html=1;" parent="1" vertex="1">
          <mxGeometry x="80" y="40" width="440" height="40" as="geometry" />
        </mxCell>
        <mxCell id="vgRy7pZKUeW7eWB3Pxzg-8" style="edgeStyle=orthogonalEdgeStyle;rounded=0;orthogonalLoop=1;jettySize=auto;html=1;exitX=0.5;exitY=1;exitDx=0;exitDy=0;entryX=0.5;entryY=0;entryDx=0;entryDy=0;" parent="1" source="vgRy7pZKUeW7eWB3Pxzg-9" target="vgRy7pZKUeW7eWB3Pxzg-1" edge="1">
          <mxGeometry relative="1" as="geometry" />
        </mxCell>
        <mxCell id="vgRy7pZKUeW7eWB3Pxzg-9" value="Nudity classification head" style="rounded=1;whiteSpace=wrap;html=1;" parent="1" vertex="1">
          <mxGeometry x="240" y="360" width="120" height="60" as="geometry" />
        </mxCell>
        <mxCell id="vgRy7pZKUeW7eWB3Pxzg-10" style="edgeStyle=orthogonalEdgeStyle;rounded=0;orthogonalLoop=1;jettySize=auto;html=1;exitX=0.5;exitY=1;exitDx=0;exitDy=0;entryX=0.5;entryY=0;entryDx=0;entryDy=0;" parent="1" source="vgRy7pZKUeW7eWB3Pxzg-11" target="vgRy7pZKUeW7eWB3Pxzg-13" edge="1">
          <mxGeometry relative="1" as="geometry" />
        </mxCell>
        <mxCell id="vgRy7pZKUeW7eWB3Pxzg-11" value="Hate classification head" style="rounded=1;whiteSpace=wrap;html=1;" parent="1" vertex="1">
          <mxGeometry x="400" y="360" width="120" height="60" as="geometry" />
        </mxCell>
        <mxCell id="vgRy7pZKUeW7eWB3Pxzg-12" value="Violence probability" style="rounded=1;whiteSpace=wrap;html=1;" parent="1" vertex="1">
          <mxGeometry x="80" y="520" width="120" height="60" as="geometry" />
        </mxCell>
        <mxCell id="vgRy7pZKUeW7eWB3Pxzg-13" value="Hate probability" style="rounded=1;whiteSpace=wrap;html=1;" parent="1" vertex="1">
          <mxGeometry x="400" y="520" width="120" height="60" as="geometry" />
        </mxCell>
        <mxCell id="vgRy7pZKUeW7eWB3Pxzg-22" style="edgeStyle=orthogonalEdgeStyle;rounded=0;orthogonalLoop=1;jettySize=auto;html=1;exitX=0.5;exitY=1;exitDx=0;exitDy=0;entryX=0.5;entryY=0;entryDx=0;entryDy=0;" parent="1" source="vgRy7pZKUeW7eWB3Pxzg-14" target="vgRy7pZKUeW7eWB3Pxzg-15" edge="1">
          <mxGeometry relative="1" as="geometry" />
        </mxCell>
        <mxCell id="vgRy7pZKUeW7eWB3Pxzg-14" value="Shared layers" style="rounded=1;whiteSpace=wrap;html=1;" parent="1" vertex="1">
          <mxGeometry x="240" y="120" width="120" height="60" as="geometry" />
        </mxCell>
        <mxCell id="vgRy7pZKUeW7eWB3Pxzg-17" style="edgeStyle=orthogonalEdgeStyle;rounded=0;orthogonalLoop=1;jettySize=auto;html=1;exitX=0.5;exitY=1;exitDx=0;exitDy=0;entryX=0.5;entryY=0;entryDx=0;entryDy=0;" parent="1" source="vgRy7pZKUeW7eWB3Pxzg-15" target="vgRy7pZKUeW7eWB3Pxzg-9" edge="1">
          <mxGeometry relative="1" as="geometry" />
        </mxCell>
        <mxCell id="vgRy7pZKUeW7eWB3Pxzg-18" style="edgeStyle=orthogonalEdgeStyle;rounded=0;orthogonalLoop=1;jettySize=auto;html=1;exitX=0.25;exitY=1;exitDx=0;exitDy=0;entryX=0.5;entryY=0;entryDx=0;entryDy=0;" parent="1" source="vgRy7pZKUeW7eWB3Pxzg-15" target="vgRy7pZKUeW7eWB3Pxzg-3" edge="1">
          <mxGeometry relative="1" as="geometry" />
        </mxCell>
        <mxCell id="vgRy7pZKUeW7eWB3Pxzg-19" style="edgeStyle=orthogonalEdgeStyle;rounded=0;orthogonalLoop=1;jettySize=auto;html=1;exitX=0.75;exitY=1;exitDx=0;exitDy=0;entryX=0.5;entryY=0;entryDx=0;entryDy=0;" parent="1" source="vgRy7pZKUeW7eWB3Pxzg-15" target="vgRy7pZKUeW7eWB3Pxzg-11" edge="1">
          <mxGeometry relative="1" as="geometry" />
        </mxCell>
        <mxCell id="vgRy7pZKUeW7eWB3Pxzg-15" value="Transformed features" style="rounded=1;whiteSpace=wrap;html=1;" parent="1" vertex="1">
          <mxGeometry x="80" y="240" width="440" height="40" as="geometry" />
        </mxCell>
        <mxCell id="vgRy7pZKUeW7eWB3Pxzg-28" value="" style="swimlane;startSize=0;" parent="1" vertex="1">
          <mxGeometry x="40" y="320" width="520" height="160" as="geometry" />
        </mxCell>
        <mxCell id="qyU0UYEC4IYO7kHjrdzT-1" value="Task specific layers" style="text;html=1;strokeColor=none;fillColor=none;align=center;verticalAlign=middle;whiteSpace=wrap;rounded=0;" vertex="1" parent="1">
          <mxGeometry x="410" y="320" width="150" height="30" as="geometry" />
        </mxCell>
      </root>
    </mxGraphModel>
  </diagram>
</mxfile>
